# xmcd
#
# Track frame offsets: 
#        150
#        11277
#        31529
#        58639
#        78110
#        99795
#        119591
#        146072
#        163587
#        186096
#        204761
#        230694
#        248689
#
# Disc length: 3716 seconds
#
# Revision: 9
# Processed by: cddbd v1.5.2PL0 Copyright (c) Steve Scherf et al.
# Submitted via: ExactAudioCopyFreeDBPlugin 1.0
#
DISCID=950e820d
DTITLE=Nas and Damian Marley - Distant Relatives
DYEAR=2010
DGENRE=Hip-Hop
TTITLE0=As We Enter
TTITLE1=Tribes At War Feat. K'Naan
TTITLE2=Strong Will Continue
TTITLE3=Leaders Feat. Stephen Marley
TTITLE4=Friends
TTITLE5=Count Your Blessings
TTITLE6=Dispear
TTITLE7=Land Of Promise Feat. Dennis Brown
TTITLE8=In His Own Words Feat. Stephen Marley
TTITLE9=Nah Mean
TTITLE10=Patience
TTITLE11=My Generation Feat. Lil Wayne and Joss Stone
TTITLE12=Africa Must Wake Up Feat. K'Naan
EXTD=YEAR: 2010
EXTT0=
EXTT1=
EXTT2=
EXTT3=
EXTT4=
EXTT5=
EXTT6=
EXTT7=
EXTT8=
EXTT9=
EXTT10=
EXTT11=
EXTT12=
PLAYORDER=
